<svg width="30" height="30" viewBox="0 0 30 30" fill="none" xmlns="http://www.w3.org/2000/svg">
<path fill-rule="evenodd" clip-rule="evenodd" d="M8.02462 27.7787C7.51614 27.7787 7.19835 27.3929 7.19835 26.7617C7.19835 23.7793 13.1161 17.005 19.0195 11.2628C18.0214 17.7119 11.4264 27.7787 8.02462 27.7787ZM29.2082 1.12717C28.3958 1.14675 26.7293 1.2098 25.2674 1.23077C24.7531 1.23815 24.5477 1.46919 24.6136 1.80084C24.6913 2.19166 24.9488 2.48105 25.3363 2.49128C25.8353 2.5045 26.5037 2.42118 27.3606 2.37904C25.4125 3.87789 23.0556 5.84798 20.6239 8.03989C20.3382 5.83469 19.3159 4.07105 17.3043 4.07105C14.3806 4.07105 11.4568 8.5202 10.1856 10.999C10.0585 8.96512 9.16869 7.05834 7.26191 7.05834C3.29759 7.05834 0 16.0793 0 17.4292C0 17.8908 0.527797 18.2448 0.845593 18.2448C1.22695 18.2448 1.35089 18.0541 1.47801 17.6092C3.13055 12.2066 5.60936 8.45664 7.26191 8.45664C8.08818 8.45664 8.72377 9.41003 8.72377 11.6346C8.72377 13.2714 8.44494 14.2652 8.44494 14.653C8.44494 15.2591 8.97801 15.5753 9.2958 15.5753C9.67716 15.5753 9.80428 15.3846 9.99496 14.9397C11.9017 10.2363 15.0161 5.53291 17.2407 5.53291C18.3362 5.53291 19.0814 6.93217 19.1429 9.39433C12.4733 15.5821 5.75352 23.0385 5.75352 26.7067C5.75352 28.2333 6.5953 29.1134 7.96106 29.1134C12.8645 29.1134 20.5388 16.9266 20.7058 9.64952C23.4346 7.08192 26.0366 4.8398 27.9092 3.41315C27.6208 4.12851 27.3303 4.82429 27.1824 5.34364C27.0742 5.72359 27.1401 6.14137 27.6071 6.32296C27.9024 6.43781 28.1656 6.27135 28.2813 5.94128C28.985 3.93351 29.3475 3.10997 29.7779 1.96126C30.0594 1.20993 30.0294 1.10741 29.2082 1.12717Z" fill="#0B3B3C"/>
</svg>
