<svg width="80" height="11" viewBox="0 0 80 11" fill="none" xmlns="http://www.w3.org/2000/svg">
<path fill-rule="evenodd" clip-rule="evenodd" d="M20.1743 0L14.8187 10.102H16.4062L17.8728 7.27392H23.8283L25.3097 10.102H26.8972L21.5417 0H20.1743ZM20.8356 1.56069L23.1553 5.98911H18.5391L20.8356 1.56069Z" fill="white"/>
<path fill-rule="evenodd" clip-rule="evenodd" d="M61.7826 0L56.4271 10.102H58.0146L59.4812 7.27392H65.4367L66.9181 10.102H68.5056L63.1501 0H61.7826ZM62.4438 1.56069L64.7637 5.98911H60.1475L62.4438 1.56069Z" fill="white"/>
<path fill-rule="evenodd" clip-rule="evenodd" d="M71.3241 0V10.102H80V8.77857H72.7976V0H71.3241Z" fill="white"/>
<path fill-rule="evenodd" clip-rule="evenodd" d="M38.7445 0V8.15473L31.0424 0H29.7157V10.102H31.1198V1.9765L38.7966 10.102H39.5251H40.1486V0H38.7445Z" fill="white"/>
<path fill-rule="evenodd" clip-rule="evenodd" d="M52.9724 5.66934C52.9724 8.00814 51.3894 9.03771 49.269 9.03771C47.1485 9.03771 45.5655 8.00814 45.5655 5.66934V0H44.092V5.65238C44.092 8.90602 46.2328 10.3593 49.269 10.3593C52.3052 10.3593 54.4459 8.90602 54.4459 5.65238V0H52.9724V5.66934Z" fill="white"/>
<path fill-rule="evenodd" clip-rule="evenodd" d="M6.00009 5.13272L1.32674 0H0V10.102H1.40406V1.97662L6.00009 7.00481L10.5961 1.97662V10.102H12.0002V0H10.6735L6.00009 5.13272Z" fill="white"/>
</svg>
